<?xml version="1.0"?>
<svg version="1.1" xmlns="http://www.w3.org/2000/svg" xmlns:xlink="http://www.w3.org/1999/xlink" width="600" height="500">
    <desc iVinci="yes" version="4.6" gridStep="20" showGrid="no" snapToGrid="no" codePlatform="0"/>
    <g id="Layer1" name="Layer 1" visibility="hidden" opacity="1">
        <g id="Shape1">
            <desc shapeID="1" type="0" basicInfo-basicType="1" basicInfo-roundedRectRadius="12" basicInfo-polygonSides="6" basicInfo-starPoints="5" bounding="rect(-299,-250,598,500)" text="" font-familyName="Helvetica" font-pixelSize="20" font-bold="0" font-underline="0" font-alignment="1" strokeStyle="0" markerStart="0" markerEnd="0" shadowEnabled="0" shadowOffsetX="0" shadowOffsetY="2" shadowBlur="4" shadowOpacity="160" blurEnabled="0" blurRadius="4" transform="matrix(1.00334,0,0,1,300,250)" pers-center="0,0" pers-size="0,0" pers-start="0,0" pers-end="0,0" locked="0" mesh="" flag=""/>
            <path id="shapePath1" d="M-3.05176e-05,0 L600,0 L600,500 L-3.05176e-05,500 L-3.05176e-05,0 Z" style="stroke:none;fill-rule:evenodd;fill:#ff2670;fill-opacity:1;"/>
        </g>
        <g id="Shape2">
            <desc shapeID="2" type="0" basicInfo-basicType="1" basicInfo-roundedRectRadius="12" basicInfo-polygonSides="6" basicInfo-starPoints="5" bounding="rect(-1,-0.5,2,1)" text="" font-familyName="Helvetica" font-pixelSize="20" font-bold="0" font-underline="0" font-alignment="1" strokeStyle="0" markerStart="0" markerEnd="0" shadowEnabled="0" shadowOffsetX="0" shadowOffsetY="2" shadowBlur="4" shadowOpacity="160" blurEnabled="0" blurRadius="4" transform="matrix(1,0,0,1,524.5,134)" pers-center="0,0" pers-size="0,0" pers-start="0,0" pers-end="0,0" locked="0" mesh="" flag=""/>
            <path id="shapePath2" d="M523.5,133.5 L525.5,133.5 L525.5,134.5 L523.5,134.5 L523.5,133.5 Z" style="stroke:none;fill-rule:evenodd;fill:#000000;fill-opacity:1;"/>
        </g>
    </g>
    <g id="Layer2" name="Circle" visibility="hidden" opacity="1">
        <g id="Shape3">
            <desc shapeID="3" type="0" basicInfo-basicType="4" basicInfo-roundedRectRadius="12" basicInfo-polygonSides="6" basicInfo-starPoints="5" bounding="rect(-207.5,-207.5,415,415)" text="" font-familyName="Helvetica" font-pixelSize="20" font-bold="0" font-underline="0" font-alignment="1" strokeStyle="0" markerStart="0" markerEnd="0" shadowEnabled="0" shadowOffsetX="0" shadowOffsetY="2" shadowBlur="4" shadowOpacity="160" blurEnabled="0" blurRadius="4" transform="matrix(1.13133,0,0,1.13133,300,250)" pers-center="0,0" pers-size="0,0" pers-start="0,0" pers-end="0,0" locked="0" mesh="" flag=""/>
            <path id="shapePath3" d="M65.25,250 C65.2501,120.351 170.351,15.25 300,15.25 C429.649,15.25 534.75,120.351 534.75,250 C534.75,379.649 429.649,484.75 300,484.75 C170.351,484.75 65.25,379.649 65.25,250 Z" style="stroke:none;fill-rule:evenodd;fill:#000000;fill-opacity:1;"/>
        </g>
    </g>
    <g id="Layer3" name="White Tree" visibility="hidden" opacity="1">
        <g id="Shape4">
            <desc shapeID="4" type="0" basicInfo-basicType="0" basicInfo-roundedRectRadius="12" basicInfo-polygonSides="6" basicInfo-starPoints="5" bounding="rect(-88.2665,-97.3063,176.533,194.611)" text="" font-familyName="Helvetica" font-pixelSize="20" font-bold="0" font-underline="0" font-alignment="1" strokeStyle="0" markerStart="0" markerEnd="0" shadowEnabled="0" shadowOffsetX="0" shadowOffsetY="2" shadowBlur="4" shadowOpacity="160" blurEnabled="0" blurRadius="4" transform="matrix(1.33589,0,0,1.33589,309.798,288.186)" pers-center="0,0" pers-size="0,0" pers-start="0,0" pers-end="0,0" locked="0" mesh="" flag=""/>
            <path id="shapePath4" d="M285.738,238.246 C271.936,293.455 284.818,349.584 292.178,372.589 C248.186,377.712 215.607,395.675 191.884,418.175 C236.773,397.264 278.763,388.564 322.542,388.564 C345.266,388.564 393.393,394.766 427.712,406.426 C410.717,395.428 371.565,374.427 337.114,369.406 C305.828,321.558 303.219,277.814 306.9,241.007 C356.587,252.05 401.674,280.575 401.674,280.575 C363.95,251.131 340.946,232.727 309.66,223.526 C317.942,183.04 335.424,158.196 335.424,158.196 C314.262,176.598 301.38,198.682 292.178,219.844 C224.088,218.005 203.846,243.769 203.846,243.769 C225.009,232.727 265.494,233.646 285.738,238.246 Z" style="stroke:none;fill-rule:evenodd;fill:#ffffff;fill-opacity:1;"/>
        </g>
        <g id="Shape5">
            <desc shapeID="5" type="0" basicInfo-basicType="0" basicInfo-roundedRectRadius="12" basicInfo-polygonSides="6" basicInfo-starPoints="5" bounding="rect(-12.9584,-24.452,25.9168,48.9041)" text="" font-familyName="Helvetica" font-pixelSize="20" font-bold="0" font-underline="0" font-alignment="1" strokeStyle="0" markerStart="0" markerEnd="0" shadowEnabled="0" shadowOffsetX="0" shadowOffsetY="2" shadowBlur="4" shadowOpacity="160" blurEnabled="0" blurRadius="4" transform="matrix(1.33589,0,0,1.33589,308.281,114.49)" pers-center="0,0" pers-size="0,0" pers-start="0,0" pers-end="0,0" locked="0" mesh="" flag=""/>
            <path id="shapePath5" d="M322.542,109.429 C315.182,91.0264 294.938,81.825 294.938,81.825 C294.938,81.825 286.659,101.148 294.018,119.551 C301.38,137.953 321.624,147.155 321.624,147.155 C321.624,147.155 329.904,126.912 322.542,109.429 Z" style="stroke:none;fill-rule:evenodd;fill:#ffffff;fill-opacity:1;"/>
        </g>
        <g id="Shape6">
            <desc shapeID="6" type="0" basicInfo-basicType="0" basicInfo-roundedRectRadius="12" basicInfo-polygonSides="6" basicInfo-starPoints="5" bounding="rect(-25.8305,-12.3095,51.661,24.6189)" text="" font-familyName="Helvetica" font-pixelSize="20" font-bold="0" font-underline="0" font-alignment="1" strokeStyle="0" markerStart="0" markerEnd="0" shadowEnabled="0" shadowOffsetX="0" shadowOffsetY="2" shadowBlur="4" shadowOpacity="160" blurEnabled="0" blurRadius="4" transform="matrix(1.33589,0,0,1.33589,384.652,146.235)" pers-center="0,0" pers-size="0,0" pers-start="0,0" pers-end="0,0" locked="0" mesh="" flag=""/>
            <path id="shapePath6" d="M419.158,133.353 C419.158,133.353 397.994,125.992 379.591,132.433 C360.268,139.794 350.145,159.117 350.145,159.117 C350.145,159.117 371.31,166.478 390.634,160.036 C409.036,152.675 419.158,133.353 419.158,133.353 Z" style="stroke:none;fill-rule:evenodd;fill:#ffffff;fill-opacity:1;"/>
        </g>
        <g id="Shape7">
            <desc shapeID="7" type="0" basicInfo-basicType="0" basicInfo-roundedRectRadius="12" basicInfo-polygonSides="6" basicInfo-starPoints="5" bounding="rect(-16.531,-11.8303,33.062,23.6607)" text="" font-familyName="Helvetica" font-pixelSize="20" font-bold="0" font-underline="0" font-alignment="1" strokeStyle="0" markerStart="0" markerEnd="0" shadowEnabled="0" shadowOffsetX="0" shadowOffsetY="2" shadowBlur="4" shadowOpacity="160" blurEnabled="0" blurRadius="4" transform="matrix(1.33589,0,0,1.33589,169.801,268.6)" pers-center="0,0" pers-size="0,0" pers-start="0,0" pers-end="0,0" locked="0" mesh="" flag=""/>
            <path id="shapePath7" d="M163.36,259.41 C150.477,267.691 147.717,284.254 147.717,284.254 C147.717,284.254 164.281,286.093 176.242,276.893 C189.124,268.612 191.884,252.97 191.884,252.97 C191.884,252.97 175.32,251.131 163.36,259.41 Z" style="stroke:none;fill-rule:evenodd;fill:#ffffff;fill-opacity:1;"/>
        </g>
        <g id="Shape8">
            <desc shapeID="8" type="0" basicInfo-basicType="0" basicInfo-roundedRectRadius="12" basicInfo-polygonSides="6" basicInfo-starPoints="5" bounding="rect(-12.1836,-15.8415,24.3673,31.683)" text="" font-familyName="Helvetica" font-pixelSize="20" font-bold="0" font-underline="0" font-alignment="1" strokeStyle="0" markerStart="0" markerEnd="0" shadowEnabled="0" shadowOffsetX="0" shadowOffsetY="2" shadowBlur="4" shadowOpacity="160" blurEnabled="0" blurRadius="4" transform="matrix(1.33589,0,0,1.33589,231.91,277.813)" pers-center="0,0" pers-size="0,0" pers-start="0,0" pers-end="0,0" locked="0" mesh="" flag=""/>
            <path id="shapePath8" d="M215.809,256.65 C215.809,256.65 213.966,272.292 222.247,284.254 C231.45,296.217 248.011,298.975 248.011,298.975 C248.011,298.975 249.852,283.335 241.572,271.373 C232.371,259.41 215.809,256.65 215.809,256.65 Z" style="stroke:none;fill-rule:evenodd;fill:#ffffff;fill-opacity:1;"/>
        </g>
        <g id="Shape9">
            <desc shapeID="9" type="0" basicInfo-basicType="0" basicInfo-roundedRectRadius="12" basicInfo-polygonSides="6" basicInfo-starPoints="5" bounding="rect(-12.2551,-15.8428,24.5102,31.6855)" text="" font-familyName="Helvetica" font-pixelSize="20" font-bold="0" font-underline="0" font-alignment="1" strokeStyle="0" markerStart="0" markerEnd="0" shadowEnabled="0" shadowOffsetX="0" shadowOffsetY="2" shadowBlur="4" shadowOpacity="160" blurEnabled="0" blurRadius="4" transform="matrix(1.33589,0,0,1.33589,179.581,209.724)" pers-center="0,0" pers-size="0,0" pers-start="0,0" pers-end="0,0" locked="0" mesh="" flag=""/>
            <path id="shapePath9" d="M163.36,188.56 C163.36,188.56 161.518,204.202 170.72,216.164 C179.001,228.127 195.564,230.888 195.564,230.888 C195.564,230.888 198.324,215.243 189.124,203.283 C179.923,191.32 163.36,188.56 163.36,188.56 Z" style="stroke:none;fill-rule:evenodd;fill:#ffffff;fill-opacity:1;"/>
        </g>
        <g id="Shape10">
            <desc shapeID="10" type="0" basicInfo-basicType="0" basicInfo-roundedRectRadius="12" basicInfo-polygonSides="6" basicInfo-starPoints="5" bounding="rect(-5.30819,-9.64302,10.6162,19.286)" text="" font-familyName="Helvetica" font-pixelSize="20" font-bold="0" font-underline="0" font-alignment="1" strokeStyle="0" markerStart="0" markerEnd="0" shadowEnabled="0" shadowOffsetX="0" shadowOffsetY="2" shadowBlur="4" shadowOpacity="160" blurEnabled="0" blurRadius="4" transform="matrix(1.33589,0,0,1.33589,362.452,275.973)" pers-center="0,0" pers-size="0,0" pers-start="0,0" pers-end="0,0" locked="0" mesh="" flag=""/>
            <path id="shapePath10" d="M368.55,288.855 C368.55,288.855 371.31,280.575 367.628,273.213 C364.871,266.772 356.587,263.091 356.587,263.091 C356.587,263.091 353.828,271.373 356.587,277.814 C360.268,285.176 368.55,288.855 368.55,288.855 Z" style="stroke:none;fill-rule:evenodd;fill:#ffffff;fill-opacity:1;"/>
        </g>
        <g id="Shape11">
            <desc shapeID="11" type="0" basicInfo-basicType="0" basicInfo-roundedRectRadius="12" basicInfo-polygonSides="6" basicInfo-starPoints="5" bounding="rect(-10.0141,-12.3973,20.0282,24.7945)" text="" font-familyName="Helvetica" font-pixelSize="20" font-bold="0" font-underline="0" font-alignment="1" strokeStyle="0" markerStart="0" markerEnd="0" shadowEnabled="0" shadowOffsetX="0" shadowOffsetY="2" shadowBlur="4" shadowOpacity="160" blurEnabled="0" blurRadius="4" transform="matrix(1.33589,0,0,1.33589,267.795,194.081)" pers-center="0,0" pers-size="0,0" pers-start="0,0" pers-end="0,0" locked="0" mesh="" flag=""/>
            <path id="shapePath11" d="M260.895,188.56 C253.533,197.761 254.454,210.643 254.454,210.643 C254.454,210.643 267.336,207.884 274.696,199.601 C282.056,190.403 281.136,177.52 281.136,177.52 C281.136,177.52 268.254,179.359 260.895,188.56 Z" style="stroke:none;fill-rule:evenodd;fill:#ffffff;fill-opacity:1;"/>
        </g>
        <g id="Shape12">
            <desc shapeID="12" type="0" basicInfo-basicType="0" basicInfo-roundedRectRadius="12" basicInfo-polygonSides="6" basicInfo-starPoints="5" bounding="rect(-8.64447,-10.331,17.2888,20.662)" text="" font-familyName="Helvetica" font-pixelSize="20" font-bold="0" font-underline="0" font-alignment="1" strokeStyle="0" markerStart="0" markerEnd="0" shadowEnabled="0" shadowOffsetX="0" shadowOffsetY="2" shadowBlur="4" shadowOpacity="160" blurEnabled="0" blurRadius="4" transform="matrix(1.33589,0,0,1.33589,337.114,209.415)" pers-center="0,0" pers-size="0,0" pers-start="0,0" pers-end="0,0" locked="0" mesh="" flag=""/>
            <path id="shapePath12" d="M331.134,204.813 C324.693,213.095 325.612,223.216 325.612,223.216 C325.612,223.216 336.654,221.376 343.096,214.014 C349.536,206.655 348.617,195.614 348.617,195.614 C348.617,195.614 336.654,197.453 331.134,204.813 Z" style="stroke:none;fill-rule:evenodd;fill:#ffffff;fill-opacity:1;"/>
        </g>
        <g id="Shape13">
            <desc shapeID="13" type="0" basicInfo-basicType="0" basicInfo-roundedRectRadius="12" basicInfo-polygonSides="6" basicInfo-starPoints="5" bounding="rect(-17.564,-11.0311,35.128,22.0623)" text="" font-familyName="Helvetica" font-pixelSize="20" font-bold="0" font-underline="0" font-alignment="1" strokeStyle="0" markerStart="0" markerEnd="0" shadowEnabled="0" shadowOffsetX="0" shadowOffsetY="2" shadowBlur="4" shadowOpacity="160" blurEnabled="0" blurRadius="4" transform="matrix(1.33589,0,0,1.33589,432.5,298.483)" pers-center="0,0" pers-size="0,0" pers-start="0,0" pers-end="0,0" locked="0" mesh="" flag=""/>
            <path id="shapePath13" d="M438.479,288.855 C425.599,281.494 409.036,284.254 409.036,284.254 C409.036,284.254 412.718,299.896 425.599,307.258 C438.479,315.539 455.963,312.778 455.963,312.778 C455.963,312.778 451.362,297.136 438.479,288.855 Z" style="stroke:none;fill-rule:evenodd;fill:#ffffff;fill-opacity:1;"/>
        </g>
        <g id="Shape14">
            <desc shapeID="14" type="0" basicInfo-basicType="0" basicInfo-roundedRectRadius="12" basicInfo-polygonSides="6" basicInfo-starPoints="5" bounding="rect(-11.3999,-16.531,22.7998,33.062)" text="" font-familyName="Helvetica" font-pixelSize="20" font-bold="0" font-underline="0" font-alignment="1" strokeStyle="0" markerStart="0" markerEnd="0" shadowEnabled="0" shadowOffsetX="0" shadowOffsetY="2" shadowBlur="4" shadowOpacity="160" blurEnabled="0" blurRadius="4" transform="matrix(1.33589,0,0,1.33589,418.238,240.088)" pers-center="0,0" pers-size="0,0" pers-start="0,0" pers-end="0,0" locked="0" mesh="" flag=""/>
            <path id="shapePath14" d="M428.359,246.53 C435.721,233.646 432.959,218.005 432.959,218.005 C432.959,218.005 416.396,222.605 408.116,234.567 C400.754,246.53 403.516,262.172 403.516,262.172 C403.516,262.172 420.076,258.49 428.359,246.53 Z" style="stroke:none;fill-rule:evenodd;fill:#ffffff;fill-opacity:1;"/>
        </g>
        <g id="Shape15">
            <desc shapeID="15" type="0" basicInfo-basicType="0" basicInfo-roundedRectRadius="12" basicInfo-polygonSides="6" basicInfo-starPoints="5" bounding="rect(-11.4911,-16.53,22.9822,33.06)" text="" font-familyName="Helvetica" font-pixelSize="20" font-bold="0" font-underline="0" font-alignment="1" strokeStyle="0" markerStart="0" markerEnd="0" shadowEnabled="0" shadowOffsetX="0" shadowOffsetY="2" shadowBlur="4" shadowOpacity="160" blurEnabled="0" blurRadius="4" transform="matrix(1.33589,0,0,1.33589,371.123,311.859)" pers-center="0,0" pers-size="0,0" pers-start="0,0" pers-end="0,0" locked="0" mesh="" flag=""/>
            <path id="shapePath15" d="M361.188,305.418 C352.908,318.302 356.587,333.941 356.587,333.941 C356.587,333.941 372.23,329.34 380.511,317.378 C388.792,305.418 386.032,289.776 386.032,289.776 C386.032,289.776 369.47,293.455 361.188,305.418 Z" style="stroke:none;fill-rule:evenodd;fill:#ffffff;fill-opacity:1;"/>
        </g>
        <g id="Shape16">
            <desc shapeID="16" type="0" basicInfo-basicType="0" basicInfo-roundedRectRadius="12" basicInfo-polygonSides="6" basicInfo-starPoints="5" bounding="rect(-13.6218,-24.1076,27.2435,48.2153)" text="" font-familyName="Helvetica" font-pixelSize="20" font-bold="0" font-underline="0" font-alignment="1" strokeStyle="0" markerStart="0" markerEnd="0" shadowEnabled="0" shadowOffsetX="0" shadowOffsetY="2" shadowBlur="4" shadowOpacity="160" blurEnabled="0" blurRadius="4" transform="matrix(1.33589,0,0,1.33589,353.368,114.95)" pers-center="0,0" pers-size="0,0" pers-start="0,0" pers-end="0,0" locked="0" mesh="" flag=""/>
            <path id="shapePath16" d="M367.628,121.391 C375.912,102.988 368.55,82.7451 368.55,82.7451 C368.55,82.7451 347.386,91.9466 339.105,109.429 C330.824,126.912 338.186,147.155 338.186,147.155 C338.186,147.155 359.348,138.873 367.628,121.391 Z" style="stroke:none;fill-rule:evenodd;fill:#ffffff;fill-opacity:1;"/>
        </g>
        <g id="Shape17">
            <desc shapeID="17" type="0" basicInfo-basicType="0" basicInfo-roundedRectRadius="12" basicInfo-polygonSides="6" basicInfo-starPoints="5" bounding="rect(-25.1405,-12.7808,50.281,25.5617)" text="" font-familyName="Helvetica" font-pixelSize="20" font-bold="0" font-underline="0" font-alignment="1" strokeStyle="0" markerStart="0" markerEnd="0" shadowEnabled="0" shadowOffsetX="0" shadowOffsetY="2" shadowBlur="4" shadowOpacity="160" blurEnabled="0" blurRadius="4" transform="matrix(1.33589,0,0,1.33589,275.157,144.137)" pers-center="0,0" pers-size="0,0" pers-start="0,0" pers-end="0,0" locked="0" mesh="" flag=""/>
            <path id="shapePath17" d="M269.174,157.276 C287.576,165.557 308.742,158.196 308.742,158.196 C308.742,158.196 300.458,138.873 281.136,130.592 C262.734,123.231 241.572,129.672 241.572,129.672 C241.572,129.672 250.773,148.995 269.174,157.276 Z" style="stroke:none;fill-rule:evenodd;fill:#ffffff;fill-opacity:1;"/>
        </g>
        <g id="Shape18">
            <desc shapeID="18" type="0" basicInfo-basicType="0" basicInfo-roundedRectRadius="12" basicInfo-polygonSides="6" basicInfo-starPoints="5" bounding="rect(-25.1415,-12.7804,50.283,25.5609)" text="" font-familyName="Helvetica" font-pixelSize="20" font-bold="0" font-underline="0" font-alignment="1" strokeStyle="0" markerStart="0" markerEnd="0" shadowEnabled="0" shadowOffsetX="0" shadowOffsetY="2" shadowBlur="4" shadowOpacity="160" blurEnabled="0" blurRadius="4" transform="matrix(1.33589,0,0,1.33589,383.731,189.224)" pers-center="0,0" pers-size="0,0" pers-start="0,0" pers-end="0,0" locked="0" mesh="" flag=""/>
            <path id="shapePath18" d="M350.145,174.759 C350.145,174.759 358.428,195.003 377.753,202.361 C396.154,210.643 417.317,203.283 417.317,203.283 C417.317,203.283 409.036,183.96 389.711,175.679 C371.31,168.318 350.145,174.759 350.145,174.759 Z" style="stroke:none;fill-rule:evenodd;fill:#ffffff;fill-opacity:1;"/>
        </g>
        <g id="Shape19">
            <desc shapeID="19" type="0" basicInfo-basicType="0" basicInfo-roundedRectRadius="12" basicInfo-polygonSides="6" basicInfo-starPoints="5" bounding="rect(-8.8788,-19.286,17.7575,38.572)" text="" font-familyName="Helvetica" font-pixelSize="20" font-bold="0" font-underline="0" font-alignment="1" strokeStyle="0" markerStart="0" markerEnd="0" shadowEnabled="0" shadowOffsetX="0" shadowOffsetY="2" shadowBlur="4" shadowOpacity="160" blurEnabled="0" blurRadius="4" transform="matrix(1.33589,0,0,1.33589,198.902,285.174)" pers-center="0,0" pers-size="0,0" pers-start="0,0" pers-end="0,0" locked="0" mesh="" flag=""/>
            <path id="shapePath19" d="M194.644,310.938 C194.644,310.938 207.526,300.817 210.286,287.015 C213.046,272.292 202.927,259.41 202.927,259.41 C202.927,259.41 190.045,269.534 187.285,283.335 C185.442,298.056 194.644,310.938 194.644,310.938 Z" style="stroke:none;fill-rule:evenodd;fill:#ffffff;fill-opacity:1;"/>
        </g>
        <g id="Shape20">
            <desc shapeID="20" type="0" basicInfo-basicType="0" basicInfo-roundedRectRadius="12" basicInfo-polygonSides="6" basicInfo-starPoints="5" bounding="rect(-9.46539,-12.3973,18.9307,24.7945)" text="" font-familyName="Helvetica" font-pixelSize="20" font-bold="0" font-underline="0" font-alignment="1" strokeStyle="0" markerStart="0" markerEnd="0" shadowEnabled="0" shadowOffsetX="0" shadowOffsetY="2" shadowBlur="4" shadowOpacity="160" blurEnabled="0" blurRadius="4" transform="matrix(1.33589,0,0,1.33589,231.929,194.081)" pers-center="0,0" pers-size="0,0" pers-start="0,0" pers-end="0,0" locked="0" mesh="" flag=""/>
            <path id="shapePath20" d="M244.33,210.643 C244.33,210.643 246.17,198.682 239.73,189.48 C232.371,180.279 219.489,177.52 219.489,177.52 C219.489,177.52 217.647,190.403 225.009,199.601 C231.45,208.803 244.33,210.643 244.33,210.643 Z" style="stroke:none;fill-rule:evenodd;fill:#ffffff;fill-opacity:1;"/>
        </g>
        <g id="Shape21">
            <desc shapeID="21" type="0" basicInfo-basicType="0" basicInfo-roundedRectRadius="12" basicInfo-polygonSides="6" basicInfo-starPoints="5" bounding="rect(-6.55347,-11.71,13.1068,23.42)" text="" font-familyName="Helvetica" font-pixelSize="20" font-bold="0" font-underline="0" font-alignment="1" strokeStyle="0" markerStart="0" markerEnd="0" shadowEnabled="0" shadowOffsetX="0" shadowOffsetY="2" shadowBlur="4" shadowOpacity="160" blurEnabled="0" blurRadius="4" transform="matrix(1.33589,0,0,1.33589,261.814,264.932)" pers-center="0,0" pers-size="0,0" pers-start="0,0" pers-end="0,0" locked="0" mesh="" flag=""/>
            <path id="shapePath21" d="M254.454,249.288 C254.454,249.288 250.773,259.41 255.372,268.612 C259.054,276.893 269.174,280.575 269.174,280.575 C269.174,280.575 272.856,270.453 268.254,262.172 C264.574,253.889 254.454,249.288 254.454,249.288 Z" style="stroke:none;fill-rule:evenodd;fill:#ffffff;fill-opacity:1;"/>
        </g>
        <g id="Shape22">
            <desc shapeID="22" type="0" basicInfo-basicType="0" basicInfo-roundedRectRadius="12" basicInfo-polygonSides="6" basicInfo-starPoints="5" bounding="rect(-8.42624,-15.153,16.8525,30.306)" text="" font-familyName="Helvetica" font-pixelSize="20" font-bold="0" font-underline="0" font-alignment="1" strokeStyle="0" markerStart="0" markerEnd="0" shadowEnabled="0" shadowOffsetX="0" shadowOffsetY="2" shadowBlur="4" shadowOpacity="160" blurEnabled="0" blurRadius="4" transform="matrix(1.33589,0,0,1.33589,326.482,270.964)" pers-center="0,0" pers-size="0,0" pers-start="0,0" pers-end="0,0" locked="0" mesh="" flag=""/>
            <path id="shapePath22" d="M336.344,291.207 C336.344,291.207 340.026,278.325 335.424,267.285 C329.904,256.243 317.022,250.722 317.022,250.722 C317.022,250.722 312.422,263.604 317.942,274.645 C323.462,285.687 336.344,291.207 336.344,291.207 Z" style="stroke:none;fill-rule:evenodd;fill:#ffffff;fill-opacity:1;"/>
        </g>
        <g id="Shape23">
            <desc shapeID="23" type="0" basicInfo-basicType="0" basicInfo-roundedRectRadius="12" basicInfo-polygonSides="6" basicInfo-starPoints="5" bounding="rect(-9.796,-12.3975,19.5919,24.795)" text="" font-familyName="Helvetica" font-pixelSize="20" font-bold="0" font-underline="0" font-alignment="1" strokeStyle="0" markerStart="0" markerEnd="0" shadowEnabled="0" shadowOffsetX="0" shadowOffsetY="2" shadowBlur="4" shadowOpacity="160" blurEnabled="0" blurRadius="4" transform="matrix(1.33589,0,0,1.33589,379.592,233.647)" pers-center="0,0" pers-size="0,0" pers-start="0,0" pers-end="0,0" locked="0" mesh="" flag=""/>
            <path id="shapePath23" d="M372.23,228.127 C364.871,237.328 366.71,250.209 366.71,250.209 C366.71,250.209 379.591,247.449 386.954,239.168 C394.314,229.966 392.474,217.086 392.474,217.086 C392.474,217.086 379.591,218.925 372.23,228.127 Z" style="stroke:none;fill-rule:evenodd;fill:#ffffff;fill-opacity:1;"/>
        </g>
        <g id="Shape24">
            <desc shapeID="24" type="0" basicInfo-basicType="0" basicInfo-roundedRectRadius="12" basicInfo-polygonSides="6" basicInfo-starPoints="5" bounding="rect(-20.3195,-8.21385,40.639,16.4277)" text="" font-familyName="Helvetica" font-pixelSize="20" font-bold="0" font-underline="0" font-alignment="1" strokeStyle="0" markerStart="0" markerEnd="0" shadowEnabled="0" shadowOffsetX="0" shadowOffsetY="2" shadowBlur="4" shadowOpacity="160" blurEnabled="0" blurRadius="4" transform="matrix(1.33589,0,0,1.33589,161.98,236.993)" pers-center="0,0" pers-size="0,0" pers-start="0,0" pers-end="0,0" locked="0" mesh="" flag=""/>
            <path id="shapePath24" d="M189.124,241.007 C189.124,241.007 179.001,229.046 163.36,226.287 C148.637,224.445 134.835,232.727 134.835,232.727 C134.835,232.727 144.956,245.608 160.599,247.449 C175.32,250.209 189.124,241.007 189.124,241.007 Z" style="stroke:none;fill-rule:evenodd;fill:#ffffff;fill-opacity:1;"/>
        </g>
        <g id="Shape25">
            <desc shapeID="25" type="0" basicInfo-basicType="0" basicInfo-roundedRectRadius="12" basicInfo-polygonSides="6" basicInfo-starPoints="5" bounding="rect(-20.32,-8.48514,40.64,16.9704)" text="" font-familyName="Helvetica" font-pixelSize="20" font-bold="0" font-underline="0" font-alignment="1" strokeStyle="0" markerStart="0" markerEnd="0" shadowEnabled="0" shadowOffsetX="0" shadowOffsetY="2" shadowBlur="4" shadowOpacity="160" blurEnabled="0" blurRadius="4" transform="matrix(1.33589,0,0,1.33589,438.02,266.501)" pers-center="0,0" pers-size="0,0" pers-start="0,0" pers-end="0,0" locked="0" mesh="" flag=""/>
            <path id="shapePath25" d="M410.875,272.292 C410.875,272.292 425.599,280.575 440.32,276.893 C455.043,274.134 465.165,261.251 465.165,261.251 C465.165,261.251 450.442,252.97 435.721,255.729 C420.076,259.41 410.875,272.292 410.875,272.292 Z" style="stroke:none;fill-rule:evenodd;fill:#ffffff;fill-opacity:1;"/>
        </g>
        <g id="Shape26">
            <desc shapeID="26" type="0" basicInfo-basicType="0" basicInfo-roundedRectRadius="12" basicInfo-polygonSides="6" basicInfo-starPoints="5" bounding="rect(-8.97134,-18.9415,17.9427,37.883)" text="" font-familyName="Helvetica" font-pixelSize="20" font-bold="0" font-underline="0" font-alignment="1" strokeStyle="0" markerStart="0" markerEnd="0" shadowEnabled="0" shadowOffsetX="0" shadowOffsetY="2" shadowBlur="4" shadowOpacity="160" blurEnabled="0" blurRadius="4" transform="matrix(1.33589,0,0,1.33589,404.434,316.92)" pers-center="0,0" pers-size="0,0" pers-start="0,0" pers-end="0,0" locked="0" mesh="" flag=""/>
            <path id="shapePath26" d="M410.874,342.223 C410.874,342.223 419.158,328.421 415.475,314.62 C412.718,300.817 397.994,291.616 397.994,291.616 C397.994,291.616 389.711,305.418 393.393,319.221 C397.075,333.022 410.874,342.223 410.874,342.223 Z" style="stroke:none;fill-rule:evenodd;fill:#ffffff;fill-opacity:1;"/>
        </g>
    </g>
    <g id="Layer4" name="Layer 2" opacity="1">
        <g id="Shape27">
            <desc shapeID="27" type="0" basicInfo-basicType="0" basicInfo-roundedRectRadius="12" basicInfo-polygonSides="6" basicInfo-starPoints="5" bounding="rect(-234.75,-234.75,469.5,469.5)" text="" font-familyName="Helvetica" font-pixelSize="20" font-bold="0" font-underline="0" font-alignment="1" strokeStyle="0" markerStart="0" markerEnd="0" shadowEnabled="0" shadowOffsetX="0" shadowOffsetY="2" shadowBlur="4" shadowOpacity="160" blurEnabled="0" blurRadius="4" transform="matrix(1,0,0,1,300,250)" pers-center="0,0" pers-size="0,0" pers-start="0,0" pers-end="0,0" locked="0" mesh="" flag=""/>
            <path id="shapePath27" d="M65.25,250 C65.2501,120.351 170.351,15.25 300,15.25 C429.649,15.25 534.75,120.351 534.75,250 C534.75,379.649 429.649,484.75 300,484.75 C170.351,484.75 65.25,379.649 65.25,250 M285.738,238.246 C271.936,293.455 284.818,349.584 292.178,372.589 C248.186,377.712 215.607,395.675 191.884,418.175 C236.773,397.264 278.763,388.564 322.542,388.564 C345.266,388.564 393.393,394.766 427.712,406.426 C410.717,395.428 371.565,374.427 337.114,369.406 C305.828,321.558 303.219,277.814 306.9,241.007 C356.587,252.05 401.674,280.575 401.674,280.575 C363.95,251.131 340.946,232.727 309.66,223.526 C317.942,183.04 335.424,158.196 335.424,158.196 C314.262,176.598 301.38,198.682 292.178,219.844 C224.088,218.005 203.846,243.769 203.846,243.769 C225.009,232.727 265.494,233.646 285.738,238.246 M322.542,109.429 C315.182,91.0264 294.938,81.825 294.938,81.825 C294.938,81.825 286.659,101.148 294.018,119.551 C301.38,137.953 321.624,147.155 321.624,147.155 C321.624,147.155 329.904,126.912 322.542,109.429 M419.158,133.353 C419.158,133.353 397.994,125.992 379.591,132.433 C360.268,139.794 350.145,159.117 350.145,159.117 C350.145,159.117 371.31,166.478 390.634,160.036 C409.036,152.675 419.158,133.353 419.158,133.353 M163.36,259.41 C150.477,267.691 147.717,284.254 147.717,284.254 C147.717,284.254 164.281,286.093 176.242,276.893 C189.124,268.612 191.884,252.97 191.884,252.97 C191.884,252.97 175.32,251.131 163.36,259.41 M215.809,256.65 C215.809,256.65 213.966,272.292 222.247,284.254 C231.45,296.217 248.011,298.975 248.011,298.975 C248.011,298.975 249.852,283.335 241.572,271.373 C232.371,259.41 215.809,256.65 215.809,256.65 M163.36,188.56 C163.36,188.56 161.518,204.202 170.72,216.164 C179.001,228.127 195.564,230.888 195.564,230.888 C195.564,230.888 198.324,215.243 189.124,203.283 C179.923,191.32 163.36,188.56 163.36,188.56 M368.55,288.855 C368.55,288.855 371.31,280.575 367.628,273.213 C364.871,266.772 356.587,263.091 356.587,263.091 C356.587,263.091 353.828,271.373 356.587,277.814 C360.268,285.176 368.55,288.855 368.55,288.855 M260.895,188.56 C253.533,197.761 254.454,210.643 254.454,210.643 C254.454,210.643 267.336,207.884 274.696,199.601 C282.056,190.403 281.136,177.52 281.136,177.52 C281.136,177.52 268.254,179.359 260.895,188.56 M331.134,204.813 C324.693,213.095 325.612,223.216 325.612,223.216 C325.612,223.216 336.654,221.376 343.096,214.014 C349.536,206.655 348.617,195.614 348.617,195.614 C348.617,195.614 336.654,197.453 331.134,204.813 M438.479,288.855 C425.599,281.494 409.036,284.254 409.036,284.254 C409.036,284.254 412.718,299.896 425.599,307.258 C438.479,315.539 455.963,312.778 455.963,312.778 C455.963,312.778 451.362,297.136 438.479,288.855 M428.359,246.53 C435.721,233.646 432.959,218.005 432.959,218.005 C432.959,218.005 416.396,222.605 408.116,234.567 C400.754,246.53 403.516,262.172 403.516,262.172 C403.516,262.172 420.076,258.49 428.359,246.53 M361.188,305.418 C352.908,318.302 356.587,333.941 356.587,333.941 C356.587,333.941 372.23,329.34 380.511,317.378 C388.792,305.418 386.032,289.776 386.032,289.776 C386.032,289.776 369.47,293.455 361.188,305.418 M367.628,121.391 C375.912,102.988 368.55,82.7451 368.55,82.7451 C368.55,82.7451 347.386,91.9466 339.105,109.429 C330.824,126.912 338.186,147.155 338.186,147.155 C338.186,147.155 359.348,138.873 367.628,121.391 M269.174,157.276 C287.576,165.557 308.742,158.196 308.742,158.196 C308.742,158.196 300.458,138.873 281.136,130.592 C262.734,123.231 241.572,129.672 241.572,129.672 C241.572,129.672 250.773,148.995 269.174,157.276 M350.145,174.759 C350.145,174.759 358.428,195.003 377.753,202.361 C396.154,210.643 417.317,203.283 417.317,203.283 C417.317,203.283 409.036,183.96 389.711,175.679 C371.31,168.318 350.145,174.759 350.145,174.759 M194.644,310.938 C194.644,310.938 207.526,300.817 210.286,287.015 C213.046,272.292 202.927,259.41 202.927,259.41 C202.927,259.41 190.045,269.534 187.285,283.335 C185.442,298.056 194.644,310.938 194.644,310.938 M244.33,210.643 C244.33,210.643 246.17,198.682 239.73,189.48 C232.371,180.279 219.489,177.52 219.489,177.52 C219.489,177.52 217.647,190.403 225.009,199.601 C231.45,208.803 244.33,210.643 244.33,210.643 M254.454,249.288 C254.454,249.288 250.773,259.41 255.372,268.612 C259.054,276.893 269.174,280.575 269.174,280.575 C269.174,280.575 272.856,270.453 268.254,262.172 C264.574,253.889 254.454,249.288 254.454,249.288 M336.344,291.207 C336.344,291.207 340.026,278.325 335.424,267.285 C329.904,256.243 317.022,250.722 317.022,250.722 C317.022,250.722 312.422,263.604 317.942,274.645 C323.462,285.687 336.344,291.207 336.344,291.207 M372.23,228.127 C364.871,237.328 366.71,250.209 366.71,250.209 C366.71,250.209 379.591,247.449 386.954,239.168 C394.314,229.966 392.474,217.086 392.474,217.086 C392.474,217.086 379.591,218.925 372.23,228.127 M189.124,241.007 C189.124,241.007 179.001,229.046 163.36,226.287 C148.637,224.445 134.835,232.727 134.835,232.727 C134.835,232.727 144.956,245.608 160.599,247.449 C175.32,250.209 189.124,241.007 189.124,241.007 M410.875,272.292 C410.875,272.292 425.599,280.575 440.32,276.893 C455.043,274.134 465.165,261.251 465.165,261.251 C465.165,261.251 450.442,252.97 435.721,255.729 C420.076,259.41 410.875,272.292 410.875,272.292 M410.874,342.223 C410.874,342.223 419.158,328.421 415.475,314.62 C412.718,300.817 397.994,291.616 397.994,291.616 C397.994,291.616 389.711,305.418 393.393,319.221 C397.075,333.022 410.874,342.223 410.874,342.223 Z" style="stroke:none;fill-rule:evenodd;fill:#000000;fill-opacity:1;"/>
        </g>
    </g>
</svg>
